<svg version="1.1" width="116" height="94" viewBox="0 0 116 94" fill="none" xmlns="http://www.w3.org/2000/svg">
  <path fill-rule="evenodd" clip-rule="evenodd" d="M101 30C109.284 30 116 23.2843 116 15C116 6.71573 109.284 0 101 0C93.222 0 86.8267 5.92002 86.0741 13.5H29.9259C29.1734 5.92002 22.778 0 15 0C6.71573 0 0 6.71573 0 15C0 23.2843 6.71573 30 15 30C22.778 30 29.1734 24.08 29.9259 16.5H86.0741C86.8267 24.08 93.222 30 101 30ZM29.9259 16.5H3V13.5H29.9259C29.9749 13.9934 30 14.4938 30 15C30 15.5062 29.9749 16.0066 29.9259 16.5ZM86.0741 16.5C86.0251 16.0066 86 15.5062 86 15C86 14.4938 86.0251 13.9934 86.0741 13.5H109.379L102.393 6.51472C101.808 5.92893 101.808 4.97919 102.393 4.3934C102.979 3.80761 103.929 3.80761 104.515 4.3934L114.061 13.9393C114.646 14.5251 114.646 15.4749 114.061 16.0607L104.515 25.6066C103.929 26.1924 102.979 26.1924 102.393 25.6066C101.808 25.0208 101.808 24.0711 102.393 23.4853L109.379 16.5H86.0741ZM29.9259 80.5C29.9749 80.0066 30 79.5062 30 79C30 78.4938 29.9749 77.9934 29.9259 77.5L86.0741 77.5C86.0251 77.9934 86 78.4938 86 79C86 79.5062 86.0251 80.0066 86.0741 80.5L29.9259 80.5ZM29.9259 80.5C29.1733 88.08 22.778 94 15 94C6.71573 94 0 87.2843 0 79C0 70.7157 6.71573 64 15 64C22.778 64 29.1734 69.92 29.9259 77.5H6.62133L13.6066 70.5147C14.1924 69.9289 14.1924 68.9792 13.6066 68.3934C13.0208 67.8076 12.0711 67.8076 11.4853 68.3934L1.93935 77.9393C1.35356 78.5251 1.35356 79.4749 1.93935 80.0607L11.4853 89.6066C12.0711 90.1924 13.0208 90.1924 13.6066 89.6066C14.1924 89.0208 14.1924 88.0711 13.6066 87.4853L6.62133 80.5H29.9259ZM86.0741 80.5C86.8267 88.08 93.222 94 101 94C109.284 94 116 87.2843 116 79C116 70.7157 109.284 64 101 64C93.222 64 86.8266 69.92 86.0741 77.5H109V80.5H86.0741Z" fill="white"/>
</svg>
